{
	"asset":{
		"generator":"Khronos glTF Blender I/O v3.6.28",
		"version":"2.0"
	},
	"scene":0,
	"scenes":[
		{
			"name":"Scene",
			"nodes":[
				0
			]
		}
	],
	"nodes":[
		{
			"mesh":0,
			"name":"bun_zipper_res2",
			"rotation":[
				0.7696228623390198,
				0.04356265813112259,
				-0.009531647898256779,
				0.6369397044181824
			],
			"scale":[
				10,
				10,
				10
			]
		}
	],
	"meshes":[
		{
			"name":"bun_zipper_res2",
			"primitives":[
				{
					"attributes":{
						"POSITION":0,
						"NORMAL":1
					},
					"indices":2
				}
			]
		}
	],
	"accessors":[
		{
			"bufferView":0,
			"componentType":5126,
			"count":48624,
			"max":[
				0.06093459948897362,
				0.05868950113654137,
				-0.033389098942279816
			],
			"min":[
				-0.09457159787416458,
				-0.061873599886894226,
				-0.18664300441741943
			],
			"type":"VEC3"
		},
		{
			"bufferView":1,
			"componentType":5126,
			"count":48624,
			"type":"VEC3"
		},
		{
			"bufferView":2,
			"componentType":5123,
			"count":48642,
			"type":"SCALAR"
		}
	],
	"bufferViews":[
		{
			"buffer":0,
			"byteLength":583488,
			"byteOffset":0,
			"target":34962
		},
		{
			"buffer":0,
			"byteLength":583488,
			"byteOffset":583488,
			"target":34962
		},
		{
			"buffer":0,
			"byteLength":97284,
			"byteOffset":1166976,
			"target":34963
		}
	],
	"buffers":[
		{
			"byteLength":1264260,
			"uri":"data:application/octet-stream;base64,"
		}
	]
}
